HIERARCHY
ROOT Hips
{
    OFFSET 0.000000 0.000000 0.000000
    CHANNELS 6 Xposition Yposition Zposition Zrotation Xrotation Yrotation
    JOINT Spine
    {
        OFFSET -0.000000 14.517291 0.000000
        CHANNELS 3 Zrotation Xrotation Yrotation
        JOINT Spine1
        {
            OFFSET -0.000000 37.558300 0.000000
            CHANNELS 3 Zrotation Xrotation Yrotation
            JOINT Neck
            {
                OFFSET -0.000000 37.404057 3.400369
                CHANNELS 3 Zrotation Xrotation Yrotation
                JOINT Head
                {
                    OFFSET -0.000000 24.785618 -3.540803
                    CHANNELS 3 Zrotation Xrotation Yrotation
                    End Site
                    {
                        OFFSET -0.000000 35.408028 0.000000
                    }
                }
            }
            JOINT LeftShoulder
            {
                OFFSET 6.992933 33.973492 -0.192664
                CHANNELS 3 Zrotation Xrotation Yrotation
                JOINT LeftArm
                {
                    OFFSET 21.527611 0.000000 0.000000
                    CHANNELS 3 Zrotation Xrotation Yrotation
                    JOINT LeftForeArm
                    {
                        OFFSET 56.353916 0.000000 0.000000
                        CHANNELS 3 Zrotation Xrotation Yrotation
                        JOINT LeftHand
                        {
                            OFFSET 47.774071 0.000000 0.000000
                            CHANNELS 3 Zrotation Xrotation Yrotation
                            End Site
                            {
                                OFFSET 26.556021 0.000000 0.000000
                            }
                        }
                    }
                }
            }
            JOINT RightShoulder
            {
                OFFSET -7.065357 33.973492 -0.192664
                CHANNELS 3 Zrotation Xrotation Yrotation
                JOINT RightArm
                {
                    OFFSET -21.527611 0.000000 0.000000
                    CHANNELS 3 Zrotation Xrotation Yrotation
                    JOINT RightForeArm
                    {
                        OFFSET -56.353916 0.000000 0.000000
                        CHANNELS 3 Zrotation Xrotation Yrotation
                        JOINT RightHand
                        {
                            OFFSET -47.774071 0.000000 0.000000
                            CHANNELS 3 Zrotation Xrotation Yrotation
                            End Site
                            {
                                OFFSET -26.556021 0.000000 0.000000
                            }
                        }
                    }
                }
            }
        }
    }
    JOINT LeftUpLeg
    {
        OFFSET 17.704014 0.000000 0.000000
        CHANNELS 3 Zrotation Xrotation Yrotation
        JOINT LeftLeg
        {
            OFFSET -0.000000 -81.181816 0.000000
            CHANNELS 3 Zrotation Xrotation Yrotation
            JOINT LeftFoot
            {
                OFFSET -0.000000 -62.821102 0.000000
                CHANNELS 3 Zrotation Xrotation Yrotation
                JOINT LeftToeBase
                {
                    OFFSET -0.000000 -11.507608 26.556021
                    CHANNELS 3 Zrotation Xrotation Yrotation
                    End Site
                    {
                        OFFSET -0.000000 0.000000 7.081605
                    }
                }
            }
        }
    }
    JOINT RightUpLeg
    {
        OFFSET -17.704014 0.000000 0.000000
        CHANNELS 3 Zrotation Xrotation Yrotation
        JOINT RightLeg
        {
            OFFSET -0.000000 -81.181816 0.000000
            CHANNELS 3 Zrotation Xrotation Yrotation
            JOINT RightFoot
            {
                OFFSET -0.000000 -62.821102 0.000000
                CHANNELS 3 Zrotation Xrotation Yrotation
                JOINT RightToeBase
                {
                    OFFSET -0.000000 -11.507608 26.556021
                    CHANNELS 3 Zrotation Xrotation Yrotation
                    End Site
                    {
                        OFFSET -0.000000 0.000000 7.081605
                    }
                }
            }
        }
    }
}
MOTION
Frames:    13
Frame Time:    0.008333
-57.920467    149.294052    -81.313126    -7.407136    0.229114    41.437542    2.168316    -2.624658    -2.081604    -4.980417    2.841793    -0.586109    13.643413    -5.188256    -3.776987    4.522035    3.693314    -6.100115    8.860071    5.131166    -21.967035    -27.422190    18.805290    -60.894062    -13.880581    -2.166051    -90.274940    15.840690    -16.891081    -6.377636    -14.181099    -6.408612    -1.965962    26.590208    -23.057726    66.604134    -15.020408    -16.190456    50.053539    -9.519402    -11.579221    27.223183    0.872264    -6.450237    -3.493986    -15.485540    40.953495    -17.984165    27.549734    -25.844444    47.608437    0.000000    0.000000    0.000000    5.314813    -38.458248    -5.552598    16.185617    26.246706    -17.760359    -10.256213    5.701409    -10.040475    0.000000    0.000000    0.000000    
-58.050190    149.291992    -81.456627    -7.341770    0.189380    41.538383    2.170601    -2.606644    -2.147523    -5.008630    2.885197    -0.605421    13.647257    -5.175558    -3.776889    4.456573    3.628103    -6.103945    8.841952    5.161270    -21.949276    -27.395992    18.810535    -60.927151    -13.886325    -2.147233    -90.241226    15.782167    -16.869911    -6.395567    -14.204763    -6.404176    -1.941741    26.790014    -23.241266    66.626450    -14.721135    -15.932870    50.196049    -9.621096    -11.458952    27.227259    0.844091    -6.493215    -3.573439    -15.509938    41.015427    -17.979897    27.578247    -25.809774    47.614723    0.000000    0.000000    0.000000    5.215146    -38.409599    -5.667711    16.160328    26.164925    -17.802013    -10.212088    5.761507    -9.990523    0.000000    0.000000    0.000000    
-58.154625    149.290695    -81.581306    -7.275933    0.139906    41.631699    2.184913    -2.596375    -2.180683    -5.051906    2.954564    -0.612308    13.673674    -5.235369    -3.764332    4.371559    3.628646    -6.112759    8.858432    5.173000    -21.976923    -27.460110    18.751875    -60.935303    -13.928264    -2.035084    -90.182297    15.789692    -16.788361    -6.378950    -14.183434    -6.445122    -1.999216    26.740433    -23.212938    66.601311    -14.666597    -15.900521    50.191242    -9.602948    -11.448710    27.236423    0.823444    -6.509936    -3.640433    -15.525032    41.066586    -18.016273    27.635078    -25.750767    47.633839    0.000000    0.000000    0.000000    5.120307    -38.343472    -5.826949    16.117615    26.095495    -17.822506    -10.198665    5.816498    -9.881799    0.000000    0.000000    0.000000    
-58.245407    149.289841    -81.701782    -7.210710    0.080470    41.729557    2.212271    -2.561081    -2.210460    -5.102257    2.964194    -0.620554    13.695330    -5.183419    -3.780280    4.318491    3.537324    -6.129813    8.872057    5.200749    -22.025394    -27.478245    18.791914    -60.945351    -13.967519    -2.066176    -90.159592    15.844785    -16.851601    -6.357565    -14.156343    -6.407686    -2.035823    26.419523    -23.015711    66.465279    -14.929109    -16.154577    50.048592    -9.495588    -11.581693    27.238447    0.804545    -6.520282    -3.708061    -15.538520    41.126133    -18.036951    27.656656    -25.722706    47.647095    0.000000    0.000000    0.000000    5.018776    -38.262203    -6.002976    16.083296    26.015282    -17.849154    -10.189198    5.882754    -9.772719    0.000000    0.000000    0.000000    
-58.336823    149.289627    -81.817261    -7.173554    0.033181    41.825249    2.254152    -2.548023    -2.245179    -5.138843    2.980180    -0.630646    13.650579    -5.179844    -3.801973    4.330935    3.503109    -6.140474    8.868921    5.233611    -22.019691    -27.482809    18.810350    -60.994961    -14.028739    -2.050547    -90.130142    15.862370    -16.890318    -6.351993    -14.168778    -6.386529    -2.036091    26.359573    -23.028690    66.370369    -14.884276    -16.154686    50.100258    -9.519786    -11.596463    27.193380    0.804648    -6.572490    -3.779201    -15.571733    41.222145    -18.043550    27.684402    -25.690351    47.642921    0.000000    0.000000    0.000000    4.937512    -38.216164    -6.209312    16.026413    25.960966    -17.833284    -10.170133    5.953548    -9.674500    0.000000    0.000000    0.000000    
-58.412594    149.287003    -81.927795    -7.144935    0.000479    41.917320    2.598812    -2.926543    -2.649750    -5.559197    3.497303    -0.734897    13.315271    -4.978219    -3.613810    4.694604    3.277541    -5.804477    8.667893    5.125692    -21.542366    -27.031546    19.002277    -60.828739    -13.798300    -2.440716    -90.394821    15.726110    -17.072168    -6.207797    -14.313985    -6.581120    -1.331976    26.863070    -23.382479    66.358864    -14.595869    -15.785047    50.230961    -9.674375    -11.369172    27.169382    0.793482    -6.632094    -3.841167    -15.586746    41.306221    -18.048109    27.703981    -25.661369    47.641075    0.000000    0.000000    0.000000    4.848436    -38.182560    -6.396154    15.994143    25.901649    -17.812805    -10.180171    6.029113    -9.609993    0.000000    0.000000    0.000000    
-58.485317    149.280258    -82.036232    -7.132255    -0.026291    42.009853    2.641873    -2.945824    -2.656635    -5.581377    3.515703    -0.736171    13.286484    -5.000124    -3.638059    4.690159    3.262322    -5.826585    8.662215    5.112391    -21.594292    -27.025272    19.066633    -60.848915    -13.807803    -2.488039    -90.401688    15.860159    -17.120571    -6.095774    -14.308743    -6.585054    -1.400865    26.666195    -23.315683    66.151039    -14.576259    -15.852358    50.387764    -9.745952    -11.432023    27.080303    0.798960    -6.706730    -3.938698    -15.662054    41.380302    -17.986080    27.732897    -25.638716    47.631729    0.000000    0.000000    0.000000    4.768133    -38.173538    -6.576701    15.962326    25.863777    -17.767790    -10.178271    6.094914    -9.576140    0.000000    0.000000    0.000000    
-58.547783    149.269943    -82.130798    -7.113283    -0.057787    42.094059    2.674420    -2.940118    -2.668838    -5.593124    3.482304    -0.741732    13.294249    -4.984782    -3.647400    4.648540    3.248226    -5.840232    8.669656    5.154882    -21.645319    -27.110434    19.037512    -60.845028    -13.909872    -2.398246    -90.392471    15.910970    -17.129202    -6.041571    -14.305634    -6.543071    -1.423200    26.664227    -23.352007    66.119545    -14.543812    -15.796811    50.402012    -9.701744    -11.383193    27.138905    0.802082    -6.760452    -4.006327    -15.712682    41.456379    -17.965200    27.758831    -25.629057    47.635983    0.000000    0.000000    0.000000    4.692112    -38.154026    -6.708804    15.961226    25.819580    -17.775202    -10.186873    6.151033    -9.536416    0.000000    0.000000    0.000000    
-58.600174    149.254578    -82.222687    -7.098228    -0.084361    42.156055    2.385518    -2.588076    -2.239900    -5.229354    3.000627    -0.626807    13.808309    -5.215042    -3.828400    4.014251    3.405403    -6.235484    8.977961    5.324780    -22.216883    -27.587622    18.905752    -61.172421    -14.046588    -2.133641    -90.044624    15.858045    -16.944185    -6.181353    -14.091930    -6.401752    -2.215193    26.048428    -23.000069    65.956787    -14.740520    -16.085224    50.333496    -9.594917    -11.571462    27.158260    0.803837    -6.802136    -4.066017    -15.761333    41.506443    -17.955845    27.812922    -25.608284    47.660122    0.000000    0.000000    0.000000    4.630166    -38.150280    -6.816824    15.960110    25.798666    -17.766283    -10.182599    6.207095    -9.539601    0.000000    0.000000    0.000000    
-58.636211    149.234726    -82.297752    -7.072925    -0.112053    42.215115    2.416416    -2.602063    -2.211675    -5.275572    3.014996    -0.615878    13.930516    -5.231597    -3.817751    3.872274    3.379490    -6.265772    9.047068    5.329744    -22.234163    -27.535252    19.024920    -61.288074    -13.936722    -2.311266    -90.050423    15.798182    -17.006180    -6.197448    -14.029112    -6.409999    -2.271398    26.143379    -23.077454    66.073730    -14.715929    -15.953003    50.178005    -9.543840    -11.471948    27.294712    0.798922    -6.816851    -4.122707    -15.804620    41.540852    -17.938234    27.858864    -25.606503    47.663509    0.000000    0.000000    0.000000    4.565071    -38.133350    -6.916408    15.962738    25.785231    -17.750925    -10.204714    6.232955    -9.532603    0.000000    0.000000    0.000000    
-58.664005    149.208405    -82.373116    -7.045813    -0.131005    42.258759    2.425514    -2.610057    -2.187670    -5.265399    3.016575    -0.608199    13.918311    -5.240944    -3.825926    3.871117    3.353064    -6.272261    9.050994    5.347588    -22.250637    -27.526821    19.048965    -61.351273    -13.940544    -2.324018    -90.067482    15.861102    -17.031567    -6.213143    -14.029379    -6.455812    -2.295788    26.117035    -23.066854    66.008072    -14.705867    -15.973883    50.173931    -9.486799    -11.486750    27.315332    0.784791    -6.824603    -4.176594    -15.852681    41.555202    -17.915909    27.916517    -25.609215    47.688484    0.000000    0.000000    0.000000    4.506499    -38.127968    -6.999283    15.963111    25.782225    -17.756235    -10.254320    6.253599    -9.499002    0.000000    0.000000    0.000000    
-58.679817    149.175110    -82.435463    -7.005154    -0.156165    42.294228    2.413872    -2.603153    -2.163494    -5.217999    3.005831    -0.601751    13.826257    -5.251827    -3.840291    3.964313    3.365435    -6.260196    9.019523    5.366200    -22.274544    -27.552181    19.039209    -61.368370    -13.971490    -2.264941    -90.092484    15.932449    -17.018164    -6.234305    -14.058702    -6.458855    -2.314902    26.109800    -23.068577    65.971100    -14.727810    -15.958542    50.147545    -9.482070    -11.466794    27.350561    0.763446    -6.810220    -4.183332    -15.860315    41.583851    -17.931349    27.967083    -25.622553    47.694672    0.000000    0.000000    0.000000    4.447681    -38.109039    -7.066278    15.971209    25.799412    -17.759655    -10.282341    6.236212    -9.487561    0.000000    0.000000    0.000000    
-58.684422    149.145721    -82.493080    -6.959607    -0.177286    42.324421    2.395110    -2.596075    -2.146325    -5.173847    2.999718    -0.597241    13.829331    -5.220789    -3.835869    3.931526    3.303863    -6.254012    8.990414    5.362115    -22.271282    -27.547592    19.079710    -61.392830    -13.972178    -2.274388    -90.132713    15.913884    -17.038109    -6.246049    -14.088619    -6.453961    -2.324343    26.425810    -23.323669    66.054726    -14.389456    -15.631897    50.312004    -9.604158    -11.300733    27.397501    0.729031    -6.792240    -4.178961    -15.851377    41.615334    -17.930565    28.008951    -25.637554    47.674458    0.000000    0.000000    0.000000    4.388629    -38.093056    -7.137082    15.968033    25.831083    -17.748306    -10.332085    6.210463    -9.481256    0.000000    0.000000    0.000000    
